<?xml version="1.0" standalone="no"?>
<!DOCTYPE svg PUBLIC "-//W3C//DTD SVG 20010904//EN"
 "http://www.w3.org/TR/2001/REC-SVG-20010904/DTD/svg10.dtd">
<svg version="1.0" xmlns="http://www.w3.org/2000/svg"
 width="371.000000pt" height="371.000000pt" viewBox="0 0 371.000000 371.000000"
 preserveAspectRatio="xMidYMid meet">
<metadata>
Created by potrace 1.11, written by Peter Selinger 2001-2013
</metadata>
<g transform="translate(0.000000,371.000000) scale(0.100000,-0.100000)"
fill="#000000" stroke="none">
<path d="M2075 3559 c-22 -5 -77 -13 -121 -19 -45 -5 -111 -19 -146 -30 -36
-11 -116 -29 -177 -39 -62 -11 -118 -24 -124 -30 -22 -17 -111 -62 -164 -82
-66 -26 -265 -145 -277 -167 -5 -10 -77 -84 -160 -167 -84 -82 -165 -168 -181
-190 -16 -22 -52 -67 -81 -100 -54 -63 -79 -110 -87 -160 -7 -42 -43 -137 -85
-223 -30 -62 -48 -85 -116 -142 -137 -116 -160 -142 -185 -209 -19 -53 -21
-67 -11 -97 18 -53 8 -140 -23 -208 -23 -50 -27 -71 -27 -153 0 -95 -15 -177
-65 -355 -14 -48 -25 -93 -25 -100 0 -21 62 -64 101 -72 49 -9 71 -36 77 -94
5 -58 -12 -102 -94 -238 -29 -51 -54 -95 -54 -99 0 -4 11 -20 25 -37 21 -25
25 -40 25 -94 0 -36 -7 -81 -15 -101 -8 -19 -15 -55 -15 -78 0 -43 0 -44 57
-70 49 -22 68 -26 123 -22 102 8 261 36 277 49 9 7 28 35 44 64 16 28 37 58
47 67 21 18 117 46 192 55 30 4 79 20 109 35 29 16 76 32 105 37 52 9 75 17
134 50 25 13 41 16 65 9 18 -4 44 -10 58 -13 14 -3 74 -37 133 -76 121 -80
208 -115 311 -125 39 -4 97 -13 130 -21 122 -28 343 -12 407 30 13 9 63 21
109 27 64 8 96 18 137 42 29 18 71 43 93 56 80 47 149 22 149 -55 0 -20 8 -40
19 -51 22 -20 71 -90 71 -101 0 -4 14 -22 31 -41 40 -44 118 -70 246 -84 89
-9 106 -8 135 6 40 20 143 37 224 37 107 1 158 38 200 146 15 40 15 42 -13 90
-59 99 -120 372 -142 629 -6 75 -18 140 -31 173 -11 29 -20 62 -20 75 -1 12
-8 40 -16 62 -9 22 -19 83 -24 135 -18 203 -33 298 -61 384 -16 49 -29 95 -29
103 0 7 -11 40 -25 73 -14 33 -25 74 -25 93 0 36 -55 209 -87 272 -11 22 -37
89 -58 149 -20 60 -43 119 -50 130 -8 12 -28 53 -44 93 -17 39 -48 97 -69 130
-22 32 -51 84 -66 115 -49 105 -160 260 -212 299 -96 71 -140 97 -227 134 -48
21 -99 47 -113 57 -50 40 -192 58 -289 37z"/>
</g>
</svg>
